<svg id="OBJECTS" xmlns="http://www.w3.org/2000/svg" viewBox="0 0 3269.26 666.28"><title>bookeeper</title><path d="M890.77,179.61V123.44l-8.16-3.15c-2.77-1.12-68.76-26.7-156.75-26.7-94.22,0-175.57,28.76-241.56,85.36C418.18,122.35,337,93.59,242.62,93.59c-88,0-154,25.58-156.75,26.7l-8,3.15v52c-26.72,5-43.32,14-43.32,28.5V740H429.26c13.66,12.31,33.76,19.92,56,19.92s42.32-7.61,55.87-19.92H926.05V204c0-11.9-13.43-19.65-35.28-24.37ZM480,697.76c-32.81-13.56-145.68-56.45-258.73-56.45-44.65,0-84.22,6.78-118,20.34V141.15a463.58,463.58,0,0,1,139.34-22c86.87,0,161.46,26.27,222.3,77.34V507.25l15.1-16.6Zm385.15-36c-36.24-14.53-77.75-21.86-123.81-21.86-113,0-220.53,43.3-252.79,57.55V490.65l15,16.6V196.51c60.88-51.07,135.45-77.34,222.33-77.34,65.85,0,119.67,15.51,139.31,22Zm0,0" transform="translate(-34.54 -93.59)" style="fill:#edeef0"/><path d="M1183.8,675.7V609.45h-66.25V742H985.05V410.7h66.25V543.2h132.5V477h66.25V543.2H1183.8v66.25h66.25V675.7h66.25V742h-66.25V675.7ZM1250.05,477V410.7h66.25V477Z" transform="translate(-34.54 -93.59)" style="fill:#bf0411"/><path d="M1713.8,609.45H1515.05V675.7H1713.8V742H1382.55V410.7H1713.8V477h-265V543.2h265Z" transform="translate(-34.54 -93.59)" style="fill:#bf0411"/><path d="M2111.3,609.45H1912.55V675.7H2111.3V742H1780.05V410.7H2111.3V477h-265V543.2h265Z" transform="translate(-34.54 -93.59)" style="fill:#bf0411"/><path d="M2310.05,609.45V742h-132.5V410.7H2508.8V609.45ZM2442.55,477H2243.8V543.2h198.75Z" transform="translate(-34.54 -93.59)" style="fill:#bf0411"/><path d="M2906.3,609.45H2707.55V675.7H2906.3V742H2575.05V410.7H2906.3V477h-265V543.2h265Z" transform="translate(-34.54 -93.59)" style="fill:#bf0411"/><path d="M3171.3,675.7V609.45h-66.25V742h-132.5V410.7H3303.8V609.45h-66.25V675.7ZM3237.55,477H3038.8V543.2h198.75ZM3303.8,675.7V742h-66.25V675.7Z" transform="translate(-34.54 -93.59)" style="fill:#bf0411"/><path d="M1033.63,159v48.58h48.58V304.7H1228v48.58H985.05V110.37H1228V159Z" transform="translate(-34.54 -93.59)" style="fill:#f7f7f8"/><path d="M1276.54,353.28V110.37h242.9V353.28Zm48.58-145.74h48.58V304.7h97.16V159H1325.12Z" transform="translate(-34.54 -93.59)" style="fill:#f7f7f8"/><path d="M1762.35,353.28H1568V110.37h194.33V159h48.58V304.7h-48.58ZM1616.6,207.54h48.58V304.7h97.17V159H1616.6Z" transform="translate(-34.54 -93.59)" style="fill:#f7f7f8"/><path d="M2102.42,256.12H1956.67V304.7h145.75v48.58H1859.51V110.37h242.91V159H1908.09v48.58h194.33Z" transform="translate(-34.54 -93.59)" style="fill:#f7f7f8"/><path d="M2199.58,207.54h48.58V353.28H2151V110.37h242.9V353.28h-48.58V159H2199.58Z" transform="translate(-34.54 -93.59)" style="fill:#f7f7f8"/><path d="M2442.49,110.37h242.9V353.28h-48.58V256.12h-97.16v97.16h-97.16Zm48.58,97.17h145.74V159H2491.07Z" transform="translate(-34.54 -93.59)" style="fill:#f7f7f8"/><path d="M2734,353.28V110.37h242.91V353.28H2928.3V159h-48.58V304.7h-48.59V256.12h-48.58v97.16Z" transform="translate(-34.54 -93.59)" style="fill:#f7f7f8"/><path d="M3268.37,256.12H3122.62V304.7h145.75v48.58H3025.46V110.37h242.91V159H3074v48.58h194.33Z" transform="translate(-34.54 -93.59)" style="fill:#f7f7f8"/></svg>